<svg width="925" height="439" viewBox="0 0 925 439" fill="none" xmlns="http://www.w3.org/2000/svg">
<path fill-rule="evenodd" clip-rule="evenodd" d="M427 219.5C427 326.919 339.919 414 232.5 414C125.081 414 38 326.919 38 219.5C38 112.081 125.081 25 232.5 25C339.919 25 427 112.081 427 219.5ZM212.628 219.5C212.628 247.103 190.521 269.48 163.251 269.48C135.98 269.48 113.873 247.103 113.873 219.5C113.873 191.897 135.98 169.52 163.251 169.52C190.521 169.52 212.628 191.897 212.628 219.5ZM304.76 269.48C332.363 269.48 354.74 247.103 354.74 219.5C354.74 191.897 332.363 169.52 304.76 169.52C277.157 169.52 254.78 191.897 254.78 219.5C254.78 247.103 277.157 269.48 304.76 269.48Z" fill="white"/>
<path fill-rule="evenodd" clip-rule="evenodd" d="M516.121 35.839H887.056V403.161H516.121V35.839ZM573.929 165.907H673.889V262.254H573.929V165.907ZM832.861 165.907H732.901V262.254H832.861V165.907Z" fill="white"/>
</svg>
